<?xml version="1.0"?>
<svg xmlns="http://www.w3.org/2000/svg" xmlns:xlink="http://www.w3.org/1999/xlink" xmlns:svgjs="http://svgjs.com/svgjs" version="1.1" width="512" height="512" x="0" y="0" viewBox="0 0 94 94" style="enable-background:new 0 0 512 512" xml:space="preserve" class=""><g>
<g xmlns="http://www.w3.org/2000/svg">
	<path d="M89,0H5C2.239,0,0,2.239,0,5v84c0,2.761,2.239,5,5,5h84c2.762,0,5-2.239,5-5V5C94,2.239,91.762,0,89,0z M31.088,85.553   c-14.553,0-21.571-6.935-21.571-14.381c0-3.617,1.803-8.742,7.724-12.264c6.219-3.822,14.652-4.322,19.17-4.633   C35,52.465,33.4,50.557,33.4,47.441c0-1.708,0.502-2.713,0.999-3.922c-1.105,0.103-2.204,0.202-3.208,0.202   c-10.634,0-16.654-7.95-16.654-15.792c0-4.62,2.104-9.752,6.418-13.473c5.724-4.726,13.541-6.008,18.966-6.008h19.771l-6.525,4.099   h-6.217c2.307,1.909,7.117,5.931,7.117,13.578c0,7.436-4.209,10.964-8.421,14.28c-1.306,1.304-2.813,2.712-2.813,4.929   c0,2.207,1.508,3.413,2.608,4.325l3.617,2.809c4.414,3.72,8.428,7.138,8.428,14.083C57.482,76.005,48.346,85.553,31.088,85.553z    M84.482,45.77H74.395v10.117H69.43V45.77H59.391v-5.02H69.43V30.695h4.965V40.75h10.088V45.77z" fill="#444444" data-original="#000000" style=""/>
	<path d="M45.24,30.749c0-7.243-4.317-18.503-12.64-18.503c-2.616,0-5.42,1.307-7.029,3.32c-1.707,2.114-2.204,4.821-2.204,7.443   c0,6.734,3.911,17.894,12.544,17.894c2.507,0,5.207-1.2,6.821-2.811C45.04,35.771,45.24,32.56,45.24,30.749z" fill="#444444" data-original="#000000" style=""/>
	<path d="M39.82,57.195c-0.8-0.102-1.302-0.102-2.305-0.102c-0.904,0-6.324,0.197-10.537,1.615   c-2.208,0.799-8.627,3.214-8.627,10.354c0,7.141,6.922,12.276,17.658,12.276c9.635,0,14.755-4.637,14.755-10.862   C50.764,65.334,47.451,62.627,39.82,57.195z" fill="#444444" data-original="#000000" style=""/>
</g>
<g xmlns="http://www.w3.org/2000/svg">
</g>
<g xmlns="http://www.w3.org/2000/svg">
</g>
<g xmlns="http://www.w3.org/2000/svg">
</g>
<g xmlns="http://www.w3.org/2000/svg">
</g>
<g xmlns="http://www.w3.org/2000/svg">
</g>
<g xmlns="http://www.w3.org/2000/svg">
</g>
<g xmlns="http://www.w3.org/2000/svg">
</g>
<g xmlns="http://www.w3.org/2000/svg">
</g>
<g xmlns="http://www.w3.org/2000/svg">
</g>
<g xmlns="http://www.w3.org/2000/svg">
</g>
<g xmlns="http://www.w3.org/2000/svg">
</g>
<g xmlns="http://www.w3.org/2000/svg">
</g>
<g xmlns="http://www.w3.org/2000/svg">
</g>
<g xmlns="http://www.w3.org/2000/svg">
</g>
<g xmlns="http://www.w3.org/2000/svg">
</g>
</g></svg>
